<?xml version="1.0" encoding="UTF-8"?>
<!DOCTYPE svg PUBLIC "-//W3C//DTD SVG 1.1//EN" "http://www.w3.org/Graphics/SVG/1.1/DTD/svg11.dtd">
<!-- Creator: CorelDRAW (Evaluation Version) -->
<svg xmlns="http://www.w3.org/2000/svg" xml:space="preserve" width="30.5215mm" height="30.5565mm" version="1.1" style="shape-rendering:geometricPrecision; text-rendering:geometricPrecision; image-rendering:optimizeQuality; fill-rule:evenodd; clip-rule:evenodd"
viewBox="0 0 274.3 274.62"
 xmlns:xlink="http://www.w3.org/1999/xlink"
 xmlns:xodm="http://www.corel.com/coreldraw/odm/2003">
 <defs>
  <style type="text/css">
   <![CDATA[
    .str0 {stroke:#02021F;stroke-width:17.97;stroke-miterlimit:22.9256}
    .str1 {stroke:#D49F0C;stroke-width:17.97;stroke-miterlimit:22.9256}
    .str2 {stroke:#D49F0C;stroke-width:1.8;stroke-miterlimit:22.9256}
    .fil0 {fill:none}
    .fil5 {fill:none;fill-rule:nonzero}
    .fil2 {fill:#02021F}
    .fil1 {fill:#D49F0C}
    .fil4 {fill:#02021F;fill-rule:nonzero}
    .fil3 {fill:#D49F0C;fill-rule:nonzero}
   ]]>
  </style>
 </defs>
 <g id="Layer_x0020_1">
  <metadata id="CorelCorpID_0Corel-Layer"/>
  <g id="_2490850089904">
   <g>
    <ellipse class="fil0 str0" cx="137.15" cy="137.31" rx="110.98" ry="111.11"/>
    <ellipse class="fil0 str1" cx="137.15" cy="137.31" rx="128.16" ry="128.32"/>
   </g>
   <g>
    <path class="fil1" d="M136.69 34.97c46.05,0 84.97,30.55 97.7,72.53 -11.95,-32.15 -42.86,-55.05 -79.11,-55.05 -41.79,0 -76.48,30.45 -83.21,70.42l-36.48 0c7.01,-49.68 49.59,-87.89 101.09,-87.89zm-64.64 116.05c6.65,40.06 41.38,70.6 83.24,70.6 37.1,0 68.61,-24 79.93,-57.35 -11.8,43.44 -51.44,75.39 -98.52,75.39 -51.75,0 -94.51,-38.59 -101.19,-88.63l36.55 0z"/>
    <path class="fil2" d="M157.52 57.49c38.08,0 69.76,28.17 76.35,65.33l-22.74 0c-6.62,-30.66 -33.84,-53.63 -66.41,-53.63 -21.08,0 -39.91,9.62 -52.38,24.72 13.83,-21.91 37.85,-36.41 65.17,-36.41zm76.45 93.49c-6.35,37.46 -38.16,65.93 -76.45,65.93 -27.01,0 -50.8,-14.18 -64.7,-35.68 12.46,14.77 31.09,24.16 51.91,24.16 32.85,0 60.26,-23.36 66.58,-54.42l22.67 0z"/>
    <polygon class="fil3" points="75.19,140.08 75.19,112.85 83.44,112.85 88.32,131.42 93.15,112.85 101.42,112.85 101.42,140.08 96.33,140.08 96.31,118.64 90.94,140.08 85.64,140.08 80.3,118.64 80.28,140.08 "/>
    <polygon id="_1" class="fil3" points="116.17,140.08 116.17,112.85 136.32,112.85 136.32,117.45 121.68,117.45 121.68,123.5 135.29,123.5 135.29,128.1 121.68,128.1 121.68,135.47 136.85,135.47 136.85,140.08 "/>
    <path id="_2" class="fil3" d="M150.76 140.08l0 -27.23 8.82 0c3.34,0 5.51,0.13 6.53,0.41 1.56,0.41 2.86,1.3 3.92,2.67 1.05,1.37 1.58,3.14 1.58,5.3 0,1.67 -0.3,3.07 -0.91,4.21 -0.61,1.14 -1.38,2.03 -2.31,2.69 -0.93,0.65 -1.88,1.08 -2.85,1.29 -1.31,0.26 -3.21,0.39 -5.69,0.39l-3.57 0 0 10.27 -5.51 0zm5.51 -22.63l0 7.76 3 0c2.16,0 3.6,-0.15 4.33,-0.43 0.73,-0.28 1.3,-0.73 1.71,-1.34 0.41,-0.61 0.62,-1.31 0.62,-2.12 0,-0.99 -0.29,-1.81 -0.87,-2.46 -0.58,-0.65 -1.31,-1.05 -2.21,-1.22 -0.65,-0.12 -1.96,-0.18 -3.94,-0.18l-2.64 0z"/>
    <polygon id="_3" class="fil3" points="185.35,140.08 185.35,112.85 190.86,112.85 190.86,123.57 201.59,123.57 201.59,112.85 207.1,112.85 207.1,140.08 201.59,140.08 201.59,128.17 190.86,128.17 190.86,140.08 "/>
    <path id="_4" class="fil4" d="M85.95 153.23l3.55 1.09c-0.55,2 -1.45,3.48 -2.72,4.45 -1.27,0.97 -2.87,1.45 -4.82,1.45 -2.41,0 -4.39,-0.82 -5.95,-2.47 -1.55,-1.65 -2.33,-3.9 -2.33,-6.76 0,-3.02 0.78,-5.37 2.34,-7.04 1.56,-1.67 3.61,-2.51 6.16,-2.51 2.22,0 4.03,0.66 5.41,1.97 0.83,0.78 1.44,1.89 1.86,3.35l-3.63 0.86c-0.21,-0.94 -0.66,-1.68 -1.34,-2.23 -0.68,-0.55 -1.51,-0.82 -2.48,-0.82 -1.35,0 -2.44,0.48 -3.28,1.45 -0.84,0.96 -1.26,2.53 -1.26,4.69 0,2.29 0.41,3.93 1.24,4.9 0.83,0.98 1.9,1.46 3.22,1.46 0.98,0 1.82,-0.31 2.52,-0.93 0.7,-0.62 1.21,-1.59 1.51,-2.92z"/>
    <path id="_5" class="fil4" d="M91.88 150.96c0,-1.85 0.28,-3.41 0.83,-4.67 0.41,-0.92 0.98,-1.76 1.69,-2.49 0.71,-0.74 1.5,-1.28 2.34,-1.64 1.13,-0.48 2.44,-0.72 3.92,-0.72 2.68,0 4.82,0.83 6.43,2.49 1.61,1.66 2.41,3.98 2.41,6.94 0,2.94 -0.8,5.24 -2.39,6.89 -1.59,1.66 -3.73,2.49 -6.39,2.49 -2.7,0 -4.85,-0.82 -6.44,-2.48 -1.59,-1.65 -2.39,-3.92 -2.39,-6.82zm3.78 -0.12c0,2.06 0.48,3.62 1.43,4.68 0.95,1.06 2.16,1.59 3.62,1.59 1.47,0 2.67,-0.53 3.61,-1.58 0.94,-1.06 1.41,-2.64 1.41,-4.75 0,-2.08 -0.46,-3.64 -1.37,-4.66 -0.91,-1.03 -2.13,-1.54 -3.64,-1.54 -1.51,0 -2.73,0.52 -3.66,1.55 -0.93,1.04 -1.39,2.6 -1.39,4.69z"/>
    <polygon id="_6" class="fil4" points="112.36,159.92 112.36,141.77 115.92,141.77 123.39,153.93 123.39,141.77 126.79,141.77 126.79,159.92 123.12,159.92 115.76,147.99 115.76,159.92 "/>
    <path id="_7" class="fil4" d="M129.71 154.04l3.58 -0.35c0.21,1.2 0.65,2.07 1.3,2.63 0.65,0.56 1.54,0.84 2.65,0.84 1.17,0 2.06,-0.25 2.66,-0.75 0.6,-0.5 0.9,-1.08 0.9,-1.75 0,-0.43 -0.13,-0.79 -0.38,-1.1 -0.25,-0.3 -0.69,-0.56 -1.31,-0.78 -0.43,-0.15 -1.4,-0.41 -2.92,-0.79 -1.96,-0.49 -3.33,-1.09 -4.12,-1.8 -1.11,-1 -1.66,-2.22 -1.66,-3.66 0,-0.92 0.26,-1.8 0.78,-2.6 0.52,-0.81 1.28,-1.42 2.26,-1.84 0.98,-0.42 2.17,-0.63 3.56,-0.63 2.27,0 3.98,0.5 5.13,1.51 1.15,1.01 1.75,2.35 1.81,4.04l-3.68 0.13c-0.16,-0.94 -0.49,-1.61 -1,-2.02 -0.51,-0.41 -1.28,-0.62 -2.3,-0.62 -1.06,0 -1.88,0.22 -2.48,0.66 -0.38,0.28 -0.58,0.66 -0.58,1.13 0,0.43 0.18,0.8 0.54,1.1 0.46,0.39 1.58,0.8 3.36,1.22 1.78,0.42 3.09,0.86 3.94,1.31 0.85,0.45 1.52,1.06 2,1.85 0.48,0.78 0.72,1.74 0.72,2.89 0,1.04 -0.29,2.02 -0.87,2.92 -0.58,0.91 -1.39,1.58 -2.45,2.02 -1.06,0.44 -2.37,0.66 -3.95,0.66 -2.29,0 -4.06,-0.53 -5.29,-1.59 -1.23,-1.06 -1.96,-2.6 -2.2,-4.62z"/>
    <path id="_8" class="fil4" d="M147.58 141.77l3.68 0 0 9.84c0,1.56 0.05,2.57 0.14,3.03 0.16,0.74 0.52,1.34 1.11,1.79 0.59,0.45 1.39,0.68 2.4,0.68 1.03,0 1.8,-0.21 2.33,-0.64 0.52,-0.43 0.84,-0.95 0.94,-1.57 0.11,-0.62 0.16,-1.65 0.16,-3.08l0 -10.05 3.68 0 0 9.54c0,2.18 -0.1,3.72 -0.3,4.62 -0.2,0.9 -0.56,1.66 -1.09,2.28 -0.53,0.62 -1.24,1.11 -2.13,1.48 -0.89,0.37 -2.05,0.55 -3.48,0.55 -1.73,0 -3.04,-0.2 -3.93,-0.6 -0.89,-0.4 -1.6,-0.92 -2.12,-1.56 -0.52,-0.64 -0.86,-1.31 -1.02,-2.02 -0.24,-1.04 -0.36,-2.58 -0.36,-4.61l0 -9.69z"/>
    <polygon id="_9" class="fil4" points="165.99,159.92 165.99,141.92 169.66,141.92 169.66,156.85 178.77,156.85 178.77,159.92 "/>
    <polygon id="_10" class="fil4" points="183.57,159.92 183.57,144.84 178.2,144.84 178.2,141.77 192.6,141.77 192.6,144.84 187.25,144.84 187.25,159.92 "/>
    <path id="_11" class="fil4" d="M194.01 154.04l3.58 -0.35c0.21,1.2 0.65,2.07 1.3,2.63 0.65,0.56 1.54,0.84 2.65,0.84 1.17,0 2.06,-0.25 2.66,-0.75 0.6,-0.5 0.9,-1.08 0.9,-1.75 0,-0.43 -0.13,-0.79 -0.38,-1.1 -0.25,-0.3 -0.69,-0.56 -1.31,-0.78 -0.43,-0.15 -1.4,-0.41 -2.92,-0.79 -1.96,-0.49 -3.33,-1.09 -4.12,-1.8 -1.11,-1 -1.66,-2.22 -1.66,-3.66 0,-0.92 0.26,-1.8 0.78,-2.6 0.52,-0.81 1.28,-1.42 2.26,-1.84 0.98,-0.42 2.17,-0.63 3.56,-0.63 2.27,0 3.98,0.5 5.13,1.51 1.15,1.01 1.75,2.35 1.81,4.04l-3.68 0.13c-0.16,-0.94 -0.49,-1.61 -1,-2.02 -0.51,-0.41 -1.28,-0.62 -2.3,-0.62 -1.06,0 -1.88,0.22 -2.48,0.66 -0.38,0.28 -0.58,0.66 -0.58,1.13 0,0.43 0.18,0.8 0.54,1.1 0.46,0.39 1.58,0.8 3.36,1.22 1.78,0.42 3.09,0.86 3.94,1.31 0.85,0.45 1.52,1.06 2,1.85 0.48,0.78 0.72,1.74 0.72,2.89 0,1.04 -0.29,2.02 -0.87,2.92 -0.58,0.91 -1.39,1.58 -2.45,2.02 -1.06,0.44 -2.37,0.66 -3.95,0.66 -2.29,0 -4.06,-0.53 -5.29,-1.59 -1.23,-1.06 -1.96,-2.6 -2.2,-4.62z"/>
    <polygon id="_12" class="fil5 str2" points="75.19,140.08 75.19,112.85 83.44,112.85 88.32,131.42 93.15,112.85 101.42,112.85 101.42,140.08 96.33,140.08 96.31,118.64 90.94,140.08 85.64,140.08 80.3,118.64 80.28,140.08 "/>
    <polygon id="_13" class="fil5 str2" points="116.17,140.08 116.17,112.85 136.32,112.85 136.32,117.45 121.68,117.45 121.68,123.5 135.29,123.5 135.29,128.1 121.68,128.1 121.68,135.47 136.85,135.47 136.85,140.08 "/>
    <path id="_14" class="fil5 str2" d="M150.76 140.08l0 -27.23 8.82 0c3.34,0 5.51,0.13 6.53,0.41 1.56,0.41 2.86,1.3 3.92,2.67 1.05,1.37 1.58,3.14 1.58,5.3 0,1.67 -0.3,3.07 -0.91,4.21 -0.61,1.14 -1.38,2.03 -2.31,2.69 -0.93,0.65 -1.88,1.08 -2.85,1.29 -1.31,0.26 -3.21,0.39 -5.69,0.39l-3.57 0 0 10.27 -5.51 0zm5.51 -22.63l0 7.76 3 0c2.16,0 3.6,-0.15 4.33,-0.43 0.73,-0.28 1.3,-0.73 1.71,-1.34 0.41,-0.61 0.62,-1.31 0.62,-2.12 0,-0.99 -0.29,-1.81 -0.87,-2.46 -0.58,-0.65 -1.31,-1.05 -2.21,-1.22 -0.65,-0.12 -1.96,-0.18 -3.94,-0.18l-2.64 0z"/>
    <polygon id="_15" class="fil5 str2" points="185.35,140.08 185.35,112.85 190.86,112.85 190.86,123.57 201.59,123.57 201.59,112.85 207.1,112.85 207.1,140.08 201.59,140.08 201.59,128.17 190.86,128.17 190.86,140.08 "/>
    <path id="_16" class="fil5" d="M85.95 153.23l3.55 1.09c-0.55,2 -1.45,3.48 -2.72,4.45 -1.27,0.97 -2.87,1.45 -4.82,1.45 -2.41,0 -4.39,-0.82 -5.95,-2.47 -1.55,-1.65 -2.33,-3.9 -2.33,-6.76 0,-3.02 0.78,-5.37 2.34,-7.04 1.56,-1.67 3.61,-2.51 6.16,-2.51 2.22,0 4.03,0.66 5.41,1.97 0.83,0.78 1.44,1.89 1.86,3.35l-3.63 0.86c-0.21,-0.94 -0.66,-1.68 -1.34,-2.23 -0.68,-0.55 -1.51,-0.82 -2.48,-0.82 -1.35,0 -2.44,0.48 -3.28,1.45 -0.84,0.96 -1.26,2.53 -1.26,4.69 0,2.29 0.41,3.93 1.24,4.9 0.83,0.98 1.9,1.46 3.22,1.46 0.98,0 1.82,-0.31 2.52,-0.93 0.7,-0.62 1.21,-1.59 1.51,-2.92z"/>
    <path id="_17" class="fil5" d="M91.88 150.96c0,-1.85 0.28,-3.41 0.83,-4.67 0.41,-0.92 0.98,-1.76 1.69,-2.49 0.71,-0.74 1.5,-1.28 2.34,-1.64 1.13,-0.48 2.44,-0.72 3.92,-0.72 2.68,0 4.82,0.83 6.43,2.49 1.61,1.66 2.41,3.98 2.41,6.94 0,2.94 -0.8,5.24 -2.39,6.89 -1.59,1.66 -3.73,2.49 -6.39,2.49 -2.7,0 -4.85,-0.82 -6.44,-2.48 -1.59,-1.65 -2.39,-3.92 -2.39,-6.82zm3.78 -0.12c0,2.06 0.48,3.62 1.43,4.68 0.95,1.06 2.16,1.59 3.62,1.59 1.47,0 2.67,-0.53 3.61,-1.58 0.94,-1.06 1.41,-2.64 1.41,-4.75 0,-2.08 -0.46,-3.64 -1.37,-4.66 -0.91,-1.03 -2.13,-1.54 -3.64,-1.54 -1.51,0 -2.73,0.52 -3.66,1.55 -0.93,1.04 -1.39,2.6 -1.39,4.69z"/>
    <polygon id="_18" class="fil5" points="112.36,159.92 112.36,141.77 115.92,141.77 123.39,153.93 123.39,141.77 126.79,141.77 126.79,159.92 123.12,159.92 115.76,147.99 115.76,159.92 "/>
    <path id="_19" class="fil5" d="M129.71 154.04l3.58 -0.35c0.21,1.2 0.65,2.07 1.3,2.63 0.65,0.56 1.54,0.84 2.65,0.84 1.17,0 2.06,-0.25 2.66,-0.75 0.6,-0.5 0.9,-1.08 0.9,-1.75 0,-0.43 -0.13,-0.79 -0.38,-1.1 -0.25,-0.3 -0.69,-0.56 -1.31,-0.78 -0.43,-0.15 -1.4,-0.41 -2.92,-0.79 -1.96,-0.49 -3.33,-1.09 -4.12,-1.8 -1.11,-1 -1.66,-2.22 -1.66,-3.66 0,-0.92 0.26,-1.8 0.78,-2.6 0.52,-0.81 1.28,-1.42 2.26,-1.84 0.98,-0.42 2.17,-0.63 3.56,-0.63 2.27,0 3.98,0.5 5.13,1.51 1.15,1.01 1.75,2.35 1.81,4.04l-3.68 0.13c-0.16,-0.94 -0.49,-1.61 -1,-2.02 -0.51,-0.41 -1.28,-0.62 -2.3,-0.62 -1.06,0 -1.88,0.22 -2.48,0.66 -0.38,0.28 -0.58,0.66 -0.58,1.13 0,0.43 0.18,0.8 0.54,1.1 0.46,0.39 1.58,0.8 3.36,1.22 1.78,0.42 3.09,0.86 3.94,1.31 0.85,0.45 1.52,1.06 2,1.85 0.48,0.78 0.72,1.74 0.72,2.89 0,1.04 -0.29,2.02 -0.87,2.92 -0.58,0.91 -1.39,1.58 -2.45,2.02 -1.06,0.44 -2.37,0.66 -3.95,0.66 -2.29,0 -4.06,-0.53 -5.29,-1.59 -1.23,-1.06 -1.96,-2.6 -2.2,-4.62z"/>
    <path id="_20" class="fil5" d="M147.58 141.77l3.68 0 0 9.84c0,1.56 0.05,2.57 0.14,3.03 0.16,0.74 0.52,1.34 1.11,1.79 0.59,0.45 1.39,0.68 2.4,0.68 1.03,0 1.8,-0.21 2.33,-0.64 0.52,-0.43 0.84,-0.95 0.94,-1.57 0.11,-0.62 0.16,-1.65 0.16,-3.08l0 -10.05 3.68 0 0 9.54c0,2.18 -0.1,3.72 -0.3,4.62 -0.2,0.9 -0.56,1.66 -1.09,2.28 -0.53,0.62 -1.24,1.11 -2.13,1.48 -0.89,0.37 -2.05,0.55 -3.48,0.55 -1.73,0 -3.04,-0.2 -3.93,-0.6 -0.89,-0.4 -1.6,-0.92 -2.12,-1.56 -0.52,-0.64 -0.86,-1.31 -1.02,-2.02 -0.24,-1.04 -0.36,-2.58 -0.36,-4.61l0 -9.69z"/>
    <polygon id="_21" class="fil5" points="165.99,159.92 165.99,141.92 169.66,141.92 169.66,156.85 178.77,156.85 178.77,159.92 "/>
    <polygon id="_22" class="fil5" points="183.57,159.92 183.57,144.84 178.2,144.84 178.2,141.77 192.6,141.77 192.6,144.84 187.25,144.84 187.25,159.92 "/>
    <path id="_23" class="fil5" d="M194.01 154.04l3.58 -0.35c0.21,1.2 0.65,2.07 1.3,2.63 0.65,0.56 1.54,0.84 2.65,0.84 1.17,0 2.06,-0.25 2.66,-0.75 0.6,-0.5 0.9,-1.08 0.9,-1.75 0,-0.43 -0.13,-0.79 -0.38,-1.1 -0.25,-0.3 -0.69,-0.56 -1.31,-0.78 -0.43,-0.15 -1.4,-0.41 -2.92,-0.79 -1.96,-0.49 -3.33,-1.09 -4.12,-1.8 -1.11,-1 -1.66,-2.22 -1.66,-3.66 0,-0.92 0.26,-1.8 0.78,-2.6 0.52,-0.81 1.28,-1.42 2.26,-1.84 0.98,-0.42 2.17,-0.63 3.56,-0.63 2.27,0 3.98,0.5 5.13,1.51 1.15,1.01 1.75,2.35 1.81,4.04l-3.68 0.13c-0.16,-0.94 -0.49,-1.61 -1,-2.02 -0.51,-0.41 -1.28,-0.62 -2.3,-0.62 -1.06,0 -1.88,0.22 -2.48,0.66 -0.38,0.28 -0.58,0.66 -0.58,1.13 0,0.43 0.18,0.8 0.54,1.1 0.46,0.39 1.58,0.8 3.36,1.22 1.78,0.42 3.09,0.86 3.94,1.31 0.85,0.45 1.52,1.06 2,1.85 0.48,0.78 0.72,1.74 0.72,2.89 0,1.04 -0.29,2.02 -0.87,2.92 -0.58,0.91 -1.39,1.58 -2.45,2.02 -1.06,0.44 -2.37,0.66 -3.95,0.66 -2.29,0 -4.06,-0.53 -5.29,-1.59 -1.23,-1.06 -1.96,-2.6 -2.2,-4.62z"/>
   </g>
  </g>
 </g>
</svg>
