<?xml version="1.0" encoding="UTF-8"?>
<!DOCTYPE svg PUBLIC "-//W3C//DTD SVG 1.1//EN" "http://www.w3.org/Graphics/SVG/1.1/DTD/svg11.dtd">
<!-- Creator: CorelDRAW (Evaluation Version) -->
<svg xmlns="http://www.w3.org/2000/svg" xml:space="preserve" width="22.2224mm" height="22.7744mm" version="1.1" style="shape-rendering:geometricPrecision; text-rendering:geometricPrecision; image-rendering:optimizeQuality; fill-rule:evenodd; clip-rule:evenodd"
viewBox="0 0 192.64 197.43"
 xmlns:xlink="http://www.w3.org/1999/xlink"
 xmlns:xodm="http://www.corel.com/coreldraw/odm/2003">
 <defs>
  <style type="text/css">
   <![CDATA[
    .str0 {stroke:#D49F0C;stroke-width:0.66;stroke-miterlimit:22.9256}
    .fil4 {fill:none;fill-rule:nonzero}
    .fil1 {fill:#02021F}
    .fil0 {fill:#D49F0C}
    .fil3 {fill:#02021F;fill-rule:nonzero}
    .fil2 {fill:#D49F0C;fill-rule:nonzero}
   ]]>
  </style>
 </defs>
 <g id="Layer_x0020_1">
  <metadata id="CorelCorpID_0Corel-Layer"/>
  <g id="_2490847458496">
   <path class="fil0" d="M97.61 0c44.41,0 81.96,29.47 94.24,69.96 -11.53,-31.01 -41.34,-53.1 -76.3,-53.1 -40.31,0 -73.77,29.37 -80.26,67.92l-35.18 0c6.76,-47.92 47.84,-84.78 97.51,-84.78zm-62.35 111.94c6.42,38.64 39.92,68.1 80.29,68.1 35.79,0 66.18,-23.15 77.09,-55.32 -11.38,41.9 -49.62,72.72 -95.03,72.72 -49.92,0 -91.16,-37.23 -97.61,-85.49l35.26 0z"/>
   <path class="fil1" d="M117.71 21.72c36.73,0 67.28,27.18 73.65,63.01l-21.93 0c-6.39,-29.57 -32.64,-51.73 -64.06,-51.73 -20.33,0 -38.5,9.28 -50.52,23.84 13.34,-21.14 36.51,-35.12 62.86,-35.12zm73.75 90.17c-6.13,36.13 -36.81,63.6 -73.75,63.6 -26.06,0 -49,-13.67 -62.41,-34.41 12.02,14.25 29.99,23.3 50.07,23.3 31.69,0 58.12,-22.54 64.22,-52.49l21.87 0z"/>
   <polygon class="fil2" points="38.28,101.38 38.28,75.12 46.25,75.12 50.96,93.03 55.61,75.12 63.59,75.12 63.59,101.38 58.68,101.38 58.66,80.71 53.48,101.38 48.37,101.38 43.22,80.71 43.2,101.38 "/>
   <polygon id="_1" class="fil2" points="77.81,101.38 77.81,75.12 97.25,75.12 97.25,79.56 83.13,79.56 83.13,85.39 96.26,85.39 96.26,89.83 83.13,89.83 83.13,96.95 97.77,96.95 97.77,101.38 "/>
   <path id="_2" class="fil2" d="M111.18 101.38l0 -26.26 8.5 0c3.22,0 5.32,0.13 6.3,0.39 1.5,0.4 2.76,1.25 3.78,2.57 1.01,1.32 1.52,3.03 1.52,5.12 0,1.61 -0.29,2.97 -0.87,4.07 -0.59,1.1 -1.33,1.96 -2.23,2.59 -0.9,0.62 -1.82,1.04 -2.74,1.24 -1.27,0.25 -3.09,0.38 -5.49,0.38l-3.45 0 0 9.9 -5.32 0zm5.32 -21.82l0 7.48 2.89 0c2.08,0 3.47,-0.14 4.17,-0.42 0.7,-0.27 1.25,-0.7 1.65,-1.3 0.4,-0.59 0.6,-1.26 0.6,-2.05 0,-0.96 -0.28,-1.75 -0.84,-2.37 -0.56,-0.62 -1.27,-1.02 -2.13,-1.17 -0.63,-0.12 -1.9,-0.18 -3.8,-0.18l-2.55 0z"/>
   <polygon id="_3" class="fil2" points="144.55,101.38 144.55,75.12 149.86,75.12 149.86,85.47 160.21,85.47 160.21,75.12 165.53,75.12 165.53,101.38 160.21,101.38 160.21,89.9 149.86,89.9 149.86,101.38 "/>
   <path id="_4" class="fil3" d="M48.66 114.07l3.42 1.05c-0.53,1.93 -1.4,3.36 -2.62,4.3 -1.22,0.93 -2.77,1.4 -4.65,1.4 -2.33,0 -4.24,-0.79 -5.74,-2.38 -1.5,-1.59 -2.25,-3.76 -2.25,-6.52 0,-2.91 0.75,-5.18 2.26,-6.79 1.5,-1.61 3.48,-2.42 5.94,-2.42 2.14,0 3.88,0.64 5.22,1.9 0.8,0.75 1.39,1.83 1.79,3.23l-3.5 0.83c-0.21,-0.91 -0.64,-1.62 -1.3,-2.15 -0.66,-0.53 -1.46,-0.79 -2.4,-0.79 -1.3,0 -2.36,0.46 -3.16,1.4 -0.81,0.93 -1.21,2.44 -1.21,4.52 0,2.21 0.4,3.79 1.19,4.72 0.8,0.94 1.83,1.41 3.11,1.41 0.94,0 1.75,-0.3 2.43,-0.9 0.68,-0.6 1.17,-1.54 1.46,-2.82z"/>
   <path id="_5" class="fil3" d="M54.39 111.88c0,-1.78 0.27,-3.29 0.8,-4.5 0.4,-0.89 0.94,-1.69 1.63,-2.4 0.69,-0.71 1.44,-1.24 2.26,-1.58 1.09,-0.46 2.35,-0.69 3.78,-0.69 2.58,0 4.65,0.8 6.2,2.4 1.55,1.61 2.32,3.84 2.32,6.69 0,2.83 -0.77,5.05 -2.31,6.65 -1.54,1.6 -3.59,2.4 -6.17,2.4 -2.6,0 -4.68,-0.79 -6.21,-2.39 -1.54,-1.59 -2.31,-3.78 -2.31,-6.58zm3.64 -0.12c0,1.99 0.46,3.49 1.38,4.52 0.92,1.02 2.08,1.54 3.49,1.54 1.41,0 2.57,-0.51 3.48,-1.52 0.91,-1.02 1.36,-2.54 1.36,-4.58 0,-2.01 -0.44,-3.51 -1.32,-4.5 -0.88,-0.99 -2.05,-1.48 -3.51,-1.48 -1.46,0 -2.64,0.5 -3.53,1.5 -0.89,1 -1.34,2.51 -1.34,4.53z"/>
   <polygon id="_6" class="fil3" points="74.14,120.53 74.14,103.02 77.58,103.02 84.78,114.75 84.78,103.02 88.06,103.02 88.06,120.53 84.52,120.53 77.42,109.02 77.42,120.53 "/>
   <path id="_7" class="fil3" d="M90.87 114.85l3.45 -0.34c0.21,1.15 0.62,2 1.26,2.54 0.63,0.54 1.48,0.81 2.55,0.81 1.13,0 1.99,-0.24 2.56,-0.72 0.57,-0.48 0.86,-1.04 0.86,-1.69 0,-0.42 -0.12,-0.77 -0.36,-1.06 -0.24,-0.29 -0.66,-0.54 -1.27,-0.75 -0.41,-0.15 -1.35,-0.4 -2.82,-0.77 -1.89,-0.47 -3.21,-1.05 -3.97,-1.74 -1.07,-0.97 -1.61,-2.14 -1.61,-3.53 0,-0.89 0.25,-1.73 0.75,-2.51 0.51,-0.78 1.23,-1.37 2.18,-1.78 0.95,-0.41 2.09,-0.61 3.44,-0.61 2.19,0 3.84,0.49 4.94,1.46 1.11,0.97 1.69,2.27 1.74,3.9l-3.55 0.12c-0.15,-0.91 -0.47,-1.55 -0.97,-1.95 -0.49,-0.4 -1.24,-0.6 -2.22,-0.6 -1.02,0 -1.82,0.21 -2.39,0.64 -0.37,0.27 -0.56,0.64 -0.56,1.09 0,0.42 0.18,0.77 0.53,1.06 0.44,0.38 1.52,0.77 3.24,1.18 1.72,0.4 2.98,0.83 3.8,1.26 0.82,0.44 1.47,1.03 1.93,1.78 0.46,0.75 0.7,1.68 0.7,2.79 0,1 -0.28,1.94 -0.83,2.82 -0.56,0.88 -1.35,1.53 -2.36,1.95 -1.02,0.43 -2.29,0.64 -3.81,0.64 -2.21,0 -3.91,-0.51 -5.1,-1.53 -1.19,-1.02 -1.89,-2.51 -2.12,-4.46z"/>
   <path id="_8" class="fil3" d="M108.11 103.02l3.55 0 0 9.49c0,1.51 0.05,2.48 0.13,2.93 0.15,0.72 0.51,1.3 1.07,1.73 0.57,0.44 1.34,0.65 2.31,0.65 0.99,0 1.74,-0.2 2.25,-0.62 0.51,-0.41 0.81,-0.91 0.91,-1.51 0.1,-0.6 0.15,-1.59 0.15,-2.98l0 -9.69 3.55 0 0 9.21c0,2.1 -0.09,3.59 -0.29,4.46 -0.19,0.87 -0.54,1.6 -1.05,2.2 -0.51,0.6 -1.19,1.07 -2.05,1.43 -0.86,0.35 -1.98,0.53 -3.36,0.53 -1.67,0 -2.93,-0.19 -3.79,-0.58 -0.86,-0.39 -1.54,-0.89 -2.04,-1.51 -0.5,-0.62 -0.83,-1.26 -0.99,-1.94 -0.23,-1 -0.35,-2.49 -0.35,-4.45l0 -9.35z"/>
   <polygon id="_9" class="fil3" points="125.87,120.53 125.87,103.16 129.42,103.16 129.42,117.57 138.2,117.57 138.2,120.53 "/>
   <polygon id="_10" class="fil3" points="142.83,120.53 142.83,105.98 137.65,105.98 137.65,103.02 151.54,103.02 151.54,105.98 146.38,105.98 146.38,120.53 "/>
   <path id="_11" class="fil3" d="M152.9 114.85l3.45 -0.34c0.21,1.15 0.62,2 1.26,2.54 0.63,0.54 1.48,0.81 2.55,0.81 1.13,0 1.99,-0.24 2.56,-0.72 0.57,-0.48 0.86,-1.04 0.86,-1.69 0,-0.42 -0.12,-0.77 -0.36,-1.06 -0.24,-0.29 -0.66,-0.54 -1.27,-0.75 -0.41,-0.15 -1.35,-0.4 -2.82,-0.77 -1.89,-0.47 -3.21,-1.05 -3.97,-1.74 -1.07,-0.97 -1.61,-2.14 -1.61,-3.53 0,-0.89 0.25,-1.73 0.75,-2.51 0.51,-0.78 1.23,-1.37 2.18,-1.78 0.95,-0.41 2.09,-0.61 3.44,-0.61 2.19,0 3.84,0.49 4.94,1.46 1.11,0.97 1.69,2.27 1.74,3.9l-3.55 0.12c-0.15,-0.91 -0.47,-1.55 -0.97,-1.95 -0.49,-0.4 -1.24,-0.6 -2.22,-0.6 -1.02,0 -1.82,0.21 -2.39,0.64 -0.37,0.27 -0.56,0.64 -0.56,1.09 0,0.42 0.18,0.77 0.53,1.06 0.44,0.38 1.52,0.77 3.24,1.18 1.72,0.4 2.98,0.83 3.8,1.26 0.82,0.44 1.47,1.03 1.93,1.78 0.46,0.75 0.7,1.68 0.7,2.79 0,1 -0.28,1.94 -0.83,2.82 -0.56,0.88 -1.35,1.53 -2.36,1.95 -1.02,0.43 -2.29,0.64 -3.81,0.64 -2.21,0 -3.91,-0.51 -5.1,-1.53 -1.19,-1.02 -1.89,-2.51 -2.12,-4.46z"/>
   <polygon id="_12" class="fil4 str0" points="38.28,101.38 38.28,75.12 46.25,75.12 50.96,93.03 55.61,75.12 63.59,75.12 63.59,101.38 58.68,101.38 58.66,80.71 53.48,101.38 48.37,101.38 43.22,80.71 43.2,101.38 "/>
   <polygon id="_13" class="fil4 str0" points="77.81,101.38 77.81,75.12 97.25,75.12 97.25,79.56 83.13,79.56 83.13,85.39 96.26,85.39 96.26,89.83 83.13,89.83 83.13,96.95 97.77,96.95 97.77,101.38 "/>
   <path id="_14" class="fil4 str0" d="M111.18 101.38l0 -26.26 8.5 0c3.22,0 5.32,0.13 6.3,0.39 1.5,0.4 2.76,1.25 3.78,2.57 1.01,1.32 1.52,3.03 1.52,5.12 0,1.61 -0.29,2.97 -0.87,4.07 -0.59,1.1 -1.33,1.96 -2.23,2.59 -0.9,0.62 -1.82,1.04 -2.74,1.24 -1.27,0.25 -3.09,0.38 -5.49,0.38l-3.45 0 0 9.9 -5.32 0zm5.32 -21.82l0 7.48 2.89 0c2.08,0 3.47,-0.14 4.17,-0.42 0.7,-0.27 1.25,-0.7 1.65,-1.3 0.4,-0.59 0.6,-1.26 0.6,-2.05 0,-0.96 -0.28,-1.75 -0.84,-2.37 -0.56,-0.62 -1.27,-1.02 -2.13,-1.17 -0.63,-0.12 -1.9,-0.18 -3.8,-0.18l-2.55 0z"/>
   <polygon id="_15" class="fil4 str0" points="144.55,101.38 144.55,75.12 149.86,75.12 149.86,85.47 160.21,85.47 160.21,75.12 165.53,75.12 165.53,101.38 160.21,101.38 160.21,89.9 149.86,89.9 149.86,101.38 "/>
   <path id="_16" class="fil4 str0" d="M48.66 114.07l3.42 1.05c-0.53,1.93 -1.4,3.36 -2.62,4.3 -1.22,0.93 -2.77,1.4 -4.65,1.4 -2.33,0 -4.24,-0.79 -5.74,-2.38 -1.5,-1.59 -2.25,-3.76 -2.25,-6.52 0,-2.91 0.75,-5.18 2.26,-6.79 1.5,-1.61 3.48,-2.42 5.94,-2.42 2.14,0 3.88,0.64 5.22,1.9 0.8,0.75 1.39,1.83 1.79,3.23l-3.5 0.83c-0.21,-0.91 -0.64,-1.62 -1.3,-2.15 -0.66,-0.53 -1.46,-0.79 -2.4,-0.79 -1.3,0 -2.36,0.46 -3.16,1.4 -0.81,0.93 -1.21,2.44 -1.21,4.52 0,2.21 0.4,3.79 1.19,4.72 0.8,0.94 1.83,1.41 3.11,1.41 0.94,0 1.75,-0.3 2.43,-0.9 0.68,-0.6 1.17,-1.54 1.46,-2.82z"/>
   <path id="_17" class="fil4 str0" d="M54.39 111.88c0,-1.78 0.27,-3.29 0.8,-4.5 0.4,-0.89 0.94,-1.69 1.63,-2.4 0.69,-0.71 1.44,-1.24 2.26,-1.58 1.09,-0.46 2.35,-0.69 3.78,-0.69 2.58,0 4.65,0.8 6.2,2.4 1.55,1.61 2.32,3.84 2.32,6.69 0,2.83 -0.77,5.05 -2.31,6.65 -1.54,1.6 -3.59,2.4 -6.17,2.4 -2.6,0 -4.68,-0.79 -6.21,-2.39 -1.54,-1.59 -2.31,-3.78 -2.31,-6.58zm3.64 -0.12c0,1.99 0.46,3.49 1.38,4.52 0.92,1.02 2.08,1.54 3.49,1.54 1.41,0 2.57,-0.51 3.48,-1.52 0.91,-1.02 1.36,-2.54 1.36,-4.58 0,-2.01 -0.44,-3.51 -1.32,-4.5 -0.88,-0.99 -2.05,-1.48 -3.51,-1.48 -1.46,0 -2.64,0.5 -3.53,1.5 -0.89,1 -1.34,2.51 -1.34,4.53z"/>
   <polygon id="_18" class="fil4 str0" points="74.14,120.53 74.14,103.02 77.58,103.02 84.78,114.75 84.78,103.02 88.06,103.02 88.06,120.53 84.52,120.53 77.42,109.02 77.42,120.53 "/>
   <path id="_19" class="fil4 str0" d="M90.87 114.85l3.45 -0.34c0.21,1.15 0.62,2 1.26,2.54 0.63,0.54 1.48,0.81 2.55,0.81 1.13,0 1.99,-0.24 2.56,-0.72 0.57,-0.48 0.86,-1.04 0.86,-1.69 0,-0.42 -0.12,-0.77 -0.36,-1.06 -0.24,-0.29 -0.66,-0.54 -1.27,-0.75 -0.41,-0.15 -1.35,-0.4 -2.82,-0.77 -1.89,-0.47 -3.21,-1.05 -3.97,-1.74 -1.07,-0.97 -1.61,-2.14 -1.61,-3.53 0,-0.89 0.25,-1.73 0.75,-2.51 0.51,-0.78 1.23,-1.37 2.18,-1.78 0.95,-0.41 2.09,-0.61 3.44,-0.61 2.19,0 3.84,0.49 4.94,1.46 1.11,0.97 1.69,2.27 1.74,3.9l-3.55 0.12c-0.15,-0.91 -0.47,-1.55 -0.97,-1.95 -0.49,-0.4 -1.24,-0.6 -2.22,-0.6 -1.02,0 -1.82,0.21 -2.39,0.64 -0.37,0.27 -0.56,0.64 -0.56,1.09 0,0.42 0.18,0.77 0.53,1.06 0.44,0.38 1.52,0.77 3.24,1.18 1.72,0.4 2.98,0.83 3.8,1.26 0.82,0.44 1.47,1.03 1.93,1.78 0.46,0.75 0.7,1.68 0.7,2.79 0,1 -0.28,1.94 -0.83,2.82 -0.56,0.88 -1.35,1.53 -2.36,1.95 -1.02,0.43 -2.29,0.64 -3.81,0.64 -2.21,0 -3.91,-0.51 -5.1,-1.53 -1.19,-1.02 -1.89,-2.51 -2.12,-4.46z"/>
   <path id="_20" class="fil4 str0" d="M108.11 103.02l3.55 0 0 9.49c0,1.51 0.05,2.48 0.13,2.93 0.15,0.72 0.51,1.3 1.07,1.73 0.57,0.44 1.34,0.65 2.31,0.65 0.99,0 1.74,-0.2 2.25,-0.62 0.51,-0.41 0.81,-0.91 0.91,-1.51 0.1,-0.6 0.15,-1.59 0.15,-2.98l0 -9.69 3.55 0 0 9.21c0,2.1 -0.09,3.59 -0.29,4.46 -0.19,0.87 -0.54,1.6 -1.05,2.2 -0.51,0.6 -1.19,1.07 -2.05,1.43 -0.86,0.35 -1.98,0.53 -3.36,0.53 -1.67,0 -2.93,-0.19 -3.79,-0.58 -0.86,-0.39 -1.54,-0.89 -2.04,-1.51 -0.5,-0.62 -0.83,-1.26 -0.99,-1.94 -0.23,-1 -0.35,-2.49 -0.35,-4.45l0 -9.35z"/>
   <polygon id="_21" class="fil4 str0" points="125.87,120.53 125.87,103.16 129.42,103.16 129.42,117.57 138.2,117.57 138.2,120.53 "/>
   <polygon id="_22" class="fil4 str0" points="142.83,120.53 142.83,105.98 137.65,105.98 137.65,103.02 151.54,103.02 151.54,105.98 146.38,105.98 146.38,120.53 "/>
   <path id="_23" class="fil4 str0" d="M152.9 114.85l3.45 -0.34c0.21,1.15 0.62,2 1.26,2.54 0.63,0.54 1.48,0.81 2.55,0.81 1.13,0 1.99,-0.24 2.56,-0.72 0.57,-0.48 0.86,-1.04 0.86,-1.69 0,-0.42 -0.12,-0.77 -0.36,-1.06 -0.24,-0.29 -0.66,-0.54 -1.27,-0.75 -0.41,-0.15 -1.35,-0.4 -2.82,-0.77 -1.89,-0.47 -3.21,-1.05 -3.97,-1.74 -1.07,-0.97 -1.61,-2.14 -1.61,-3.53 0,-0.89 0.25,-1.73 0.75,-2.51 0.51,-0.78 1.23,-1.37 2.18,-1.78 0.95,-0.41 2.09,-0.61 3.44,-0.61 2.19,0 3.84,0.49 4.94,1.46 1.11,0.97 1.69,2.27 1.74,3.9l-3.55 0.12c-0.15,-0.91 -0.47,-1.55 -0.97,-1.95 -0.49,-0.4 -1.24,-0.6 -2.22,-0.6 -1.02,0 -1.82,0.21 -2.39,0.64 -0.37,0.27 -0.56,0.64 -0.56,1.09 0,0.42 0.18,0.77 0.53,1.06 0.44,0.38 1.52,0.77 3.24,1.18 1.72,0.4 2.98,0.83 3.8,1.26 0.82,0.44 1.47,1.03 1.93,1.78 0.46,0.75 0.7,1.68 0.7,2.79 0,1 -0.28,1.94 -0.83,2.82 -0.56,0.88 -1.35,1.53 -2.36,1.95 -1.02,0.43 -2.29,0.64 -3.81,0.64 -2.21,0 -3.91,-0.51 -5.1,-1.53 -1.19,-1.02 -1.89,-2.51 -2.12,-4.46z"/>
  </g>
 </g>
</svg>
